<svg width="current" height="current" viewBox="0 0 104 20" fill="none" xmlns="http://www.w3.org/2000/svg">
<path d="M12.96 14.28C12.7 14.5 12.36 14.68 11.94 14.82C11.54 14.94 11.07 15 10.53 15C9.81 15 9.21 14.91 8.73 14.73C8.27 14.55 7.97 14.24 7.83 13.8C7.27 12.04 6.81 10.62 6.45 9.54C6.09 8.44 5.81 7.48 5.61 6.66H5.46C5.4 7.84 5.35 8.92 5.31 9.9C5.29 10.86 5.27 11.8 5.25 12.72C5.25 13.64 5.23 14.57 5.19 15.51C5.17 16.45 5.13 17.49 5.07 18.63C4.81 18.73 4.47 18.81 4.05 18.87C3.63 18.95 3.21 18.99 2.79 18.99C1.91 18.99 1.22 18.85 0.72 18.57C0.24 18.29 0 17.78 0 17.04L0.87 1.74C1.03 1.48 1.38 1.2 1.92 0.899999C2.46 0.599999 3.22 0.45 4.2 0.45C5.26 0.45 6.09 0.619999 6.69 0.959998C7.29 1.28 7.73 1.81 8.01 2.55C8.19 3.03 8.38 3.58 8.58 4.2C8.8 4.82 9.01 5.46 9.21 6.12C9.43 6.78 9.64 7.44 9.84 8.1C10.04 8.74 10.22 9.32 10.38 9.84H10.53C11.01 8.16 11.49 6.54 11.97 4.98C12.45 3.4 12.89 2.08 13.29 1.02C13.59 0.859999 13.97 0.729999 14.43 0.629999C14.91 0.509999 15.44 0.45 16.02 0.45C17 0.45 17.8 0.599999 18.42 0.899999C19.04 1.18 19.4 1.59 19.5 2.13C19.58 2.53 19.66 3.15 19.74 3.99C19.84 4.81 19.94 5.74 20.04 6.78C20.14 7.82 20.24 8.92 20.34 10.08C20.44 11.24 20.53 12.36 20.61 13.44C20.71 14.5 20.79 15.48 20.85 16.38C20.91 17.26 20.95 17.94 20.97 18.42C20.63 18.62 20.27 18.76 19.89 18.84C19.53 18.94 19.06 18.99 18.48 18.99C17.72 18.99 17.08 18.86 16.56 18.6C16.04 18.34 15.76 17.83 15.72 17.07C15.6 14.89 15.52 12.93 15.48 11.19C15.46 9.45 15.42 7.99 15.36 6.81H15.21C15.01 7.59 14.72 8.57 14.34 9.75C13.96 10.93 13.5 12.44 12.96 14.28Z" fill="current"/>
<path d="M22.6498 9.63C22.6498 8.07 22.8898 6.69 23.3698 5.49C23.8698 4.29 24.5398 3.29 25.3798 2.49C26.2398 1.67 27.2398 1.05 28.3798 0.629999C29.5398 0.21 30.7898 0 32.1298 0C33.4698 0 34.7098 0.21 35.8498 0.629999C37.0098 1.05 38.0198 1.67 38.8798 2.49C39.7398 3.29 40.4098 4.29 40.8898 5.49C41.3898 6.69 41.6398 8.07 41.6398 9.63C41.6398 11.19 41.3998 12.58 40.9198 13.8C40.4398 15 39.7698 16.01 38.9098 16.83C38.0698 17.63 37.0698 18.24 35.9098 18.66C34.7498 19.08 33.4898 19.29 32.1298 19.29C30.7698 19.29 29.5098 19.08 28.3498 18.66C27.1898 18.22 26.1898 17.59 25.3498 16.77C24.5098 15.95 23.8498 14.94 23.3698 13.74C22.8898 12.54 22.6498 11.17 22.6498 9.63ZM28.0498 9.63C28.0498 11.45 28.4198 12.81 29.1598 13.71C29.8998 14.61 30.8898 15.06 32.1298 15.06C33.3898 15.06 34.3898 14.61 35.1298 13.71C35.8698 12.81 36.2398 11.45 36.2398 9.63C36.2398 7.83 35.8698 6.48 35.1298 5.58C34.4098 4.68 33.4198 4.23 32.1598 4.23C30.9198 4.23 29.9198 4.68 29.1598 5.58C28.4198 6.46 28.0498 7.81 28.0498 9.63Z" fill="current"/>
<path d="M56.5256 14.28C56.2656 14.5 55.9256 14.68 55.5056 14.82C55.1056 14.94 54.6356 15 54.0956 15C53.3756 15 52.7756 14.91 52.2956 14.73C51.8356 14.55 51.5356 14.24 51.3956 13.8C50.8356 12.04 50.3756 10.62 50.0156 9.54C49.6556 8.44 49.3756 7.48 49.1756 6.66H49.0256C48.9656 7.84 48.9156 8.92 48.8756 9.9C48.8556 10.86 48.8356 11.8 48.8156 12.72C48.8156 13.64 48.7956 14.57 48.7556 15.51C48.7356 16.45 48.6956 17.49 48.6356 18.63C48.3756 18.73 48.0356 18.81 47.6156 18.87C47.1956 18.95 46.7756 18.99 46.3556 18.99C45.4756 18.99 44.7856 18.85 44.2856 18.57C43.8056 18.29 43.5656 17.78 43.5656 17.04L44.4356 1.74C44.5956 1.48 44.9456 1.2 45.4856 0.899999C46.0256 0.599999 46.7856 0.45 47.7656 0.45C48.8256 0.45 49.6556 0.619999 50.2556 0.959998C50.8556 1.28 51.2956 1.81 51.5756 2.55C51.7556 3.03 51.9456 3.58 52.1456 4.2C52.3656 4.82 52.5756 5.46 52.7756 6.12C52.9956 6.78 53.2056 7.44 53.4056 8.1C53.6056 8.74 53.7856 9.32 53.9456 9.84H54.0956C54.5756 8.16 55.0556 6.54 55.5356 4.98C56.0156 3.4 56.4556 2.08 56.8556 1.02C57.1556 0.859999 57.5356 0.729999 57.9956 0.629999C58.4756 0.509999 59.0056 0.45 59.5856 0.45C60.5656 0.45 61.3656 0.599999 61.9856 0.899999C62.6056 1.18 62.9656 1.59 63.0656 2.13C63.1456 2.53 63.2256 3.15 63.3056 3.99C63.4056 4.81 63.5056 5.74 63.6056 6.78C63.7056 7.82 63.8056 8.92 63.9056 10.08C64.0056 11.24 64.0956 12.36 64.1756 13.44C64.2756 14.5 64.3556 15.48 64.4156 16.38C64.4756 17.26 64.5156 17.94 64.5356 18.42C64.1956 18.62 63.8356 18.76 63.4556 18.84C63.0956 18.94 62.6256 18.99 62.0456 18.99C61.2856 18.99 60.6456 18.86 60.1256 18.6C59.6056 18.34 59.3256 17.83 59.2856 17.07C59.1656 14.89 59.0856 12.93 59.0456 11.19C59.0256 9.45 58.9856 7.99 58.9256 6.81H58.7756C58.5756 7.59 58.2856 8.57 57.9056 9.75C57.5256 10.93 57.0656 12.44 56.5256 14.28Z" fill="current"/>
<path d="M72.3619 15C72.6419 15.08 73.0019 15.14 73.4419 15.18C73.8819 15.2 74.3019 15.21 74.7019 15.21C75.5019 15.21 76.1619 15.05 76.6819 14.73C77.2219 14.39 77.4919 13.87 77.4919 13.17C77.4919 12.51 77.2719 12.04 76.8319 11.76C76.3919 11.48 75.7219 11.34 74.8219 11.34H72.3619V15ZM72.3619 7.68H74.5519C75.4119 7.68 76.0319 7.52 76.4119 7.2C76.8119 6.88 77.0119 6.41 77.0119 5.79C77.0119 5.25 76.7819 4.82 76.3219 4.5C75.8819 4.18 75.2119 4.02 74.3119 4.02C74.0119 4.02 73.6619 4.03 73.2619 4.05C72.8819 4.07 72.5819 4.1 72.3619 4.14V7.68ZM74.3119 19.23C73.9719 19.23 73.5719 19.22 73.1119 19.2C72.6519 19.18 72.1719 19.14 71.6719 19.08C71.1919 19.02 70.7119 18.94 70.2319 18.84C69.7519 18.76 69.3119 18.64 68.9119 18.48C67.8119 18.06 67.2619 17.33 67.2619 16.29V2.28C67.2619 1.86 67.3719 1.54 67.5919 1.32C67.8319 1.08 68.1519 0.889999 68.5519 0.749999C69.2319 0.509999 70.0819 0.339999 71.1019 0.239999C72.1219 0.119999 73.1719 0.0599992 74.2519 0.0599992C76.8119 0.0599992 78.7819 0.489999 80.1619 1.35C81.5419 2.21 82.2319 3.54 82.2319 5.34C82.2319 6.24 81.9719 7.02 81.4519 7.68C80.9319 8.32 80.2319 8.79 79.3519 9.09C80.3519 9.37 81.1819 9.88 81.8419 10.62C82.5219 11.36 82.8619 12.29 82.8619 13.41C82.8619 15.39 82.1219 16.86 80.6419 17.82C79.1819 18.76 77.0719 19.23 74.3119 19.23Z" fill="current"/>
<path d="M84.3361 9.63C84.3361 8.07 84.5761 6.69 85.0561 5.49C85.5561 4.29 86.2261 3.29 87.0661 2.49C87.9261 1.67 88.9261 1.05 90.0661 0.629999C91.2261 0.21 92.4761 0 93.8161 0C95.1561 0 96.3961 0.21 97.5361 0.629999C98.6961 1.05 99.7061 1.67 100.566 2.49C101.426 3.29 102.096 4.29 102.576 5.49C103.076 6.69 103.326 8.07 103.326 9.63C103.326 11.19 103.086 12.58 102.606 13.8C102.126 15 101.456 16.01 100.596 16.83C99.7561 17.63 98.7561 18.24 97.5961 18.66C96.4361 19.08 95.1761 19.29 93.8161 19.29C92.4561 19.29 91.1961 19.08 90.0361 18.66C88.8761 18.22 87.8761 17.59 87.0361 16.77C86.1961 15.95 85.5361 14.94 85.0561 13.74C84.5761 12.54 84.3361 11.17 84.3361 9.63ZM89.7361 9.63C89.7361 11.45 90.1061 12.81 90.8461 13.71C91.5861 14.61 92.5761 15.06 93.8161 15.06C95.0761 15.06 96.0761 14.61 96.8161 13.71C97.5561 12.81 97.9261 11.45 97.9261 9.63C97.9261 7.83 97.5561 6.48 96.8161 5.58C96.0961 4.68 95.1061 4.23 93.8461 4.23C92.6061 4.23 91.6061 4.68 90.8461 5.58C90.1061 6.46 89.7361 7.81 89.7361 9.63Z" fill="current"/>
</svg>
