<svg width="261" height="95" viewBox="0 0 261 95" fill="none" xmlns="http://www.w3.org/2000/svg">
<path d="M257.819 94.067C260.359 93.1277 261.67 90.2887 260.649 87.7655C250.475 62.6274 233.292 40.9458 211.127 25.3698C187.621 8.85122 159.645 -0.00420599 130.98 1.49863e-06C102.314 0.00420898 74.341 8.86785 50.8397 25.3933C28.6792 40.9758 11.5021 62.6625 1.3357 87.8035C0.315221 90.3271 1.62717 93.1656 4.16775 94.1042C6.70833 95.0428 9.51482 93.7258 10.5419 91.2049C20.0127 67.9595 35.9356 47.9086 56.4509 33.4829C78.3072 18.1142 104.322 9.87104 130.981 9.86713C157.64 9.86321 183.657 18.0988 205.518 33.461C226.037 47.8807 241.966 67.9269 251.444 91.1695C252.471 93.6901 255.278 95.0063 257.819 94.067Z" fill="url(#paint0_linear_3356_2638)"/>
<defs>
<linearGradient id="paint0_linear_3356_2638" x1="260.997" y1="47.2037" x2="0.988281" y2="47.2037" gradientUnits="userSpaceOnUse">
<stop stop-color="#EE5E56"/>
<stop offset="0.235165" stop-color="#F6A369"/>
<stop offset="0.5" stop-color="#FFF07D"/>
<stop offset="0.75" stop-color="#DED699"/>
<stop offset="1" stop-color="#B8B8B8"/>
</linearGradient>
</defs>
</svg>
